<svg width="305" height="233" viewBox="0 0 305 233" fill="none" xmlns="http://www.w3.org/2000/svg">
<path d="M219.317 180.283H170.623L149.613 73.2894H198.309L219.317 180.283Z" fill="url(#paint0_linear_7_210)"/>
<path d="M134.233 180.283H86.08L40.1653 116.943H88.3186L134.233 180.283Z" fill="url(#paint1_linear_7_210)"/>
<path d="M217.225 180.283H170.623L149.613 73.2894H196.217L217.225 180.283Z" fill="url(#paint2_linear_7_210)"/>
<path d="M132.14 180.283H86.08L40.1653 116.943H86.2253L132.14 180.283Z" fill="url(#paint3_linear_7_210)"/>
<path d="M15.936 205.607L10.104 216.887V222.455H6V216.887L0.168 205.607H4.824L8.088 212.663L11.328 205.607H15.936ZM21.6216 205.607V215.687C21.6216 216.695 21.8696 217.471 22.3656 218.015C22.8616 218.559 23.5896 218.831 24.5496 218.831C25.5096 218.831 26.2456 218.559 26.7576 218.015C27.2696 217.471 27.5256 216.695 27.5256 215.687V205.607H31.6296V215.663C31.6296 217.167 31.3096 218.439 30.6696 219.479C30.0296 220.519 29.1656 221.303 28.0776 221.831C27.0056 222.359 25.8056 222.623 24.4776 222.623C23.1496 222.623 21.9576 222.367 20.9016 221.855C19.8616 221.327 19.0376 220.543 18.4296 219.503C17.8216 218.447 17.5176 217.167 17.5176 215.663V205.607H21.6216ZM44.2794 222.455L38.6154 215.015V222.455H34.5114V205.607H38.6154V212.999L44.2314 205.607H49.0554L42.5274 213.863L49.2954 222.455H44.2794ZM181.467 222.623C180.235 222.623 179.131 222.423 178.155 222.023C177.179 221.623 176.395 221.031 175.803 220.247C175.227 219.463 174.923 218.519 174.891 217.415H179.259C179.323 218.039 179.539 218.519 179.907 218.855C180.275 219.175 180.755 219.335 181.347 219.335C181.955 219.335 182.435 219.199 182.787 218.927C183.139 218.639 183.315 218.247 183.315 217.751C183.315 217.335 183.171 216.991 182.883 216.719C182.611 216.447 182.267 216.223 181.851 216.047C181.451 215.871 180.875 215.671 180.123 215.447C179.035 215.111 178.147 214.775 177.459 214.439C176.771 214.103 176.179 213.607 175.683 212.951C175.187 212.295 174.939 211.439 174.939 210.383C174.939 208.815 175.507 207.591 176.643 206.711C177.779 205.815 179.259 205.367 181.083 205.367C182.939 205.367 184.435 205.815 185.571 206.711C186.707 207.591 187.315 208.823 187.395 210.407H182.955C182.923 209.863 182.723 209.439 182.355 209.135C181.987 208.815 181.515 208.655 180.939 208.655C180.443 208.655 180.043 208.791 179.739 209.063C179.435 209.319 179.283 209.695 179.283 210.191C179.283 210.735 179.539 211.159 180.051 211.463C180.563 211.767 181.363 212.095 182.451 212.447C183.539 212.815 184.419 213.167 185.091 213.503C185.779 213.839 186.371 214.327 186.867 214.967C187.363 215.607 187.611 216.431 187.611 217.439C187.611 218.399 187.363 219.271 186.867 220.055C186.387 220.839 185.683 221.463 184.755 221.927C183.827 222.391 182.731 222.623 181.467 222.623ZM200.624 219.479H194.336L193.328 222.455H189.032L195.128 205.607H199.88L205.976 222.455H201.632L200.624 219.479ZM199.568 216.311L197.48 210.143L195.416 216.311H199.568ZM222.424 205.607V222.455H218.32V215.519H211.936V222.455H207.832V205.607H211.936V212.207H218.32V205.607H222.424ZM235.874 219.479H229.586L228.578 222.455H224.282L230.378 205.607H235.13L241.226 222.455H236.882L235.874 219.479ZM234.818 216.311L232.73 210.143L230.666 216.311H234.818ZM262.162 205.607V222.455H258.058V212.351L254.29 222.455H250.978L247.186 212.327V222.455H243.082V205.607H247.93L252.658 217.271L257.338 205.607H262.162Z" fill="#C7C7C7"/>
<path d="M55.3498 205.607V222.455H51.2458V205.607H55.3498ZM73.3959 222.455H69.2919L62.4279 212.063V222.455H58.3239V205.607H62.4279L69.2919 216.047V205.607H73.3959V222.455ZM92.1868 205.607L86.2108 222.455H81.0748L75.0988 205.607H79.4668L83.6428 218.327L87.8428 205.607H92.1868ZM98.0061 208.895V212.303H103.502V215.471H98.0061V219.167H104.222V222.455H93.9021V205.607H104.222V208.895H98.0061ZM112.982 222.623C111.75 222.623 110.646 222.423 109.67 222.023C108.694 221.623 107.91 221.031 107.318 220.247C106.742 219.463 106.438 218.519 106.406 217.415H110.774C110.838 218.039 111.054 218.519 111.422 218.855C111.79 219.175 112.27 219.335 112.862 219.335C113.47 219.335 113.95 219.199 114.302 218.927C114.654 218.639 114.83 218.247 114.83 217.751C114.83 217.335 114.686 216.991 114.398 216.719C114.126 216.447 113.782 216.223 113.366 216.047C112.966 215.871 112.39 215.671 111.638 215.447C110.55 215.111 109.662 214.775 108.974 214.439C108.286 214.103 107.694 213.607 107.198 212.951C106.702 212.295 106.454 211.439 106.454 210.383C106.454 208.815 107.022 207.591 108.158 206.711C109.294 205.815 110.774 205.367 112.598 205.367C114.454 205.367 115.95 205.815 117.086 206.711C118.222 207.591 118.83 208.823 118.91 210.407H114.47C114.438 209.863 114.238 209.439 113.87 209.135C113.502 208.815 113.03 208.655 112.454 208.655C111.958 208.655 111.558 208.791 111.254 209.063C110.95 209.319 110.798 209.695 110.798 210.191C110.798 210.735 111.054 211.159 111.566 211.463C112.078 211.767 112.878 212.095 113.966 212.447C115.054 212.815 115.934 213.167 116.606 213.503C117.294 213.839 117.886 214.327 118.382 214.967C118.878 215.607 119.126 216.431 119.126 217.439C119.126 218.399 118.878 219.271 118.382 220.055C117.902 220.839 117.198 221.463 116.27 221.927C115.342 222.391 114.246 222.623 112.982 222.623ZM133.772 205.607V208.895H129.308V222.455H125.204V208.895H120.74V205.607H133.772ZM146.32 219.479H140.032L139.024 222.455H134.728L140.824 205.607H145.576L151.672 222.455H147.328L146.32 219.479ZM145.264 216.311L143.176 210.143L141.112 216.311H145.264ZM159.623 222.623C158.391 222.623 157.287 222.423 156.311 222.023C155.335 221.623 154.551 221.031 153.959 220.247C153.383 219.463 153.079 218.519 153.047 217.415H157.415C157.479 218.039 157.695 218.519 158.063 218.855C158.431 219.175 158.911 219.335 159.503 219.335C160.111 219.335 160.591 219.199 160.943 218.927C161.295 218.639 161.471 218.247 161.471 217.751C161.471 217.335 161.327 216.991 161.039 216.719C160.767 216.447 160.423 216.223 160.007 216.047C159.607 215.871 159.031 215.671 158.279 215.447C157.191 215.111 156.303 214.775 155.615 214.439C154.927 214.103 154.335 213.607 153.839 212.951C153.343 212.295 153.095 211.439 153.095 210.383C153.095 208.815 153.663 207.591 154.799 206.711C155.935 205.815 157.415 205.367 159.239 205.367C161.095 205.367 162.591 205.815 163.727 206.711C164.863 207.591 165.471 208.823 165.551 210.407H161.111C161.079 209.863 160.879 209.439 160.511 209.135C160.143 208.815 159.671 208.655 159.095 208.655C158.599 208.655 158.199 208.791 157.895 209.063C157.591 209.319 157.439 209.695 157.439 210.191C157.439 210.735 157.695 211.159 158.207 211.463C158.719 211.767 159.519 212.095 160.607 212.447C161.695 212.815 162.575 213.167 163.247 213.503C163.935 213.839 164.527 214.327 165.023 214.967C165.519 215.607 165.767 216.431 165.767 217.439C165.767 218.399 165.519 219.271 165.023 220.055C164.543 220.839 163.839 221.463 162.911 221.927C161.983 222.391 160.887 222.623 159.623 222.623ZM172.397 205.607V222.455H168.293V205.607H172.397Z" fill="#F3921A"/>
<path d="M134.776 180.283H88.9026L152.437 73.2894H198.309L134.776 180.283Z" fill="url(#paint4_linear_7_210)"/>
<path d="M4.87598 180.283H50.7493L88.3613 116.943H42.4893L4.87598 180.283Z" fill="url(#paint5_linear_7_210)"/>
<path d="M304.603 71.1787L302.849 5.14358e-05H300.027L239.623 32.74L255.648 42.2201L173.445 180.283H219.317L289.572 62.2881L301.779 71.1787H304.603Z" fill="url(#paint6_linear_7_210)"/>
<path d="M131.951 180.283H86.0801L149.615 73.2894H195.485L131.951 180.283Z" fill="url(#paint7_linear_7_210)"/>
<path d="M2.05322 180.283H47.9239L85.5372 116.943H39.6652L2.05322 180.283Z" fill="url(#paint8_linear_7_210)"/>
<path d="M301.779 71.1787L300.027 5.14358e-05L236.799 32.74L252.824 42.2201L170.623 180.283H216.495L286.749 62.2881L301.779 71.1787Z" fill="url(#paint9_linear_7_210)"/>
<defs>
<linearGradient id="paint0_linear_7_210" x1="187.946" y1="175.223" x2="182.132" y2="94.2926" gradientUnits="userSpaceOnUse">
<stop stop-color="#6B6225"/>
<stop offset="1" stop-color="#524C1B"/>
</linearGradient>
<linearGradient id="paint1_linear_7_210" x1="89.6184" y1="182.286" x2="83.8045" y2="101.356" gradientUnits="userSpaceOnUse">
<stop stop-color="#6B6225"/>
<stop offset="1" stop-color="#524C1B"/>
</linearGradient>
<linearGradient id="paint2_linear_7_210" x1="176.172" y1="78.9809" x2="192.255" y2="185.067" gradientUnits="userSpaceOnUse">
<stop stop-color="#524C1B"/>
<stop offset="0.476547" stop-color="#8E8134"/>
<stop offset="1" stop-color="#6B6225"/>
</linearGradient>
<linearGradient id="paint3_linear_7_210" x1="64.7415" y1="135.698" x2="111.592" y2="163.957" gradientUnits="userSpaceOnUse">
<stop stop-color="#524C1B"/>
<stop offset="0.476547" stop-color="#8E8134"/>
<stop offset="1" stop-color="#6B6225"/>
</linearGradient>
<linearGradient id="paint4_linear_7_210" x1="116.863" y1="171.169" x2="175.703" y2="73.5201" gradientUnits="userSpaceOnUse">
<stop stop-color="#F3921A"/>
<stop offset="1" stop-color="#D66323"/>
</linearGradient>
<linearGradient id="paint5_linear_7_210" x1="66.7073" y1="110.667" x2="29.1499" y2="181.609" gradientUnits="userSpaceOnUse">
<stop stop-color="#F3921A"/>
<stop offset="1" stop-color="#F7B50D"/>
</linearGradient>
<linearGradient id="paint6_linear_7_210" x1="283.527" y1="31.1267" x2="198.841" y2="185.693" gradientUnits="userSpaceOnUse">
<stop stop-color="#7A171E"/>
<stop offset="1" stop-color="#D02036"/>
</linearGradient>
<linearGradient id="paint7_linear_7_210" x1="114.039" y1="171.169" x2="172.879" y2="73.52" gradientUnits="userSpaceOnUse">
<stop stop-color="#D66323"/>
<stop offset="1" stop-color="#F9B312"/>
</linearGradient>
<linearGradient id="paint8_linear_7_210" x1="63.8834" y1="110.667" x2="26.326" y2="181.609" gradientUnits="userSpaceOnUse">
<stop stop-color="#FFD400"/>
<stop offset="1" stop-color="#F3921A"/>
</linearGradient>
<linearGradient id="paint9_linear_7_210" x1="280.703" y1="31.1267" x2="196.017" y2="185.693" gradientUnits="userSpaceOnUse">
<stop stop-color="#E11A35"/>
<stop offset="1" stop-color="#7A171E"/>
</linearGradient>
</defs>
</svg>
