<svg width="1399" height="93" viewBox="0 0 1399 93" fill="none" xmlns="http://www.w3.org/2000/svg">
<path d="M84.992 2.144L53.888 62.304V92H32V62.304L0.896 2.144H25.728L43.136 39.776L60.416 2.144H84.992ZM115.315 2.144V55.904C115.315 61.28 116.638 65.4187 119.283 68.32C121.928 71.2213 125.811 72.672 130.931 72.672C136.051 72.672 139.976 71.2213 142.707 68.32C145.438 65.4187 146.803 61.28 146.803 55.904V2.144H168.691V55.776C168.691 63.7973 166.984 70.5813 163.571 76.128C160.158 81.6747 155.55 85.856 149.747 88.672C144.03 91.488 137.63 92.896 130.547 92.896C123.464 92.896 117.107 91.5307 111.475 88.8C105.928 85.984 101.534 81.8027 98.291 76.256C95.0483 70.624 93.427 63.7973 93.427 55.776V2.144H115.315ZM236.157 92L205.949 52.32V92H184.061V2.144H205.949V41.568L235.901 2.144H261.629L226.813 46.176L262.909 92H236.157ZM967.823 92.896C961.252 92.896 955.364 91.8293 950.159 89.696C944.954 87.5627 940.772 84.4053 937.615 80.224C934.543 76.0427 932.922 71.008 932.751 65.12H956.047C956.388 68.448 957.54 71.008 959.503 72.8C961.466 74.5067 964.026 75.36 967.183 75.36C970.426 75.36 972.986 74.6347 974.863 73.184C976.74 71.648 977.679 69.5573 977.679 66.912C977.679 64.6933 976.911 62.8587 975.375 61.408C973.924 59.9573 972.09 58.7627 969.871 57.824C967.738 56.8853 964.666 55.8187 960.655 54.624C954.852 52.832 950.116 51.04 946.447 49.248C942.778 47.456 939.62 44.8107 936.975 41.312C934.33 37.8133 933.007 33.248 933.007 27.616C933.007 19.2533 936.036 12.7253 942.095 8.032C948.154 3.25333 956.047 0.863998 965.775 0.863998C975.674 0.863998 983.652 3.25333 989.711 8.032C995.77 12.7253 999.012 19.296 999.439 27.744H975.759C975.588 24.8427 974.522 22.5813 972.559 20.96C970.596 19.2533 968.079 18.4 965.007 18.4C962.362 18.4 960.228 19.1253 958.607 20.576C956.986 21.9413 956.175 23.9467 956.175 26.592C956.175 29.4933 957.54 31.7547 960.271 33.376C963.002 34.9973 967.268 36.7467 973.071 38.624C978.874 40.5867 983.567 42.464 987.151 44.256C990.82 46.048 993.978 48.6507 996.623 52.064C999.268 55.4773 1000.59 59.872 1000.59 65.248C1000.59 70.368 999.268 75.0187 996.623 79.2C994.063 83.3813 990.308 86.7093 985.359 89.184C980.41 91.6587 974.564 92.896 967.823 92.896ZM1070 76.128H1036.46L1031.09 92H1008.17L1040.69 2.144H1066.03L1098.54 92H1075.37L1070 76.128ZM1064.37 59.232L1053.23 26.336L1042.22 59.232H1064.37ZM1186.26 2.144V92H1164.37V55.008H1130.32V92H1108.44V2.144H1130.32V37.344H1164.37V2.144H1186.26ZM1258 76.128H1224.46L1219.09 92H1196.17L1228.69 2.144H1254.03L1286.54 92H1263.37L1258 76.128ZM1252.37 59.232L1241.23 26.336L1230.22 59.232H1252.37ZM1398.2 2.144V92H1376.31V38.112L1356.21 92H1338.55L1318.32 37.984V92H1296.44V2.144H1322.29L1347.51 64.352L1372.47 2.144H1398.2Z" fill="#666665"/>
<path d="M295.199 2.144V92H273.311V2.144H295.199ZM391.445 92H369.557L332.949 36.576V92H311.061V2.144H332.949L369.557 57.824V2.144H391.445V92ZM491.663 2.144L459.791 92H432.399L400.527 2.144H423.823L446.095 69.984L468.495 2.144H491.663ZM522.699 19.68V37.856H552.011V54.752H522.699V74.464H555.851V92H500.811V2.144H555.851V19.68H522.699ZM602.573 92.896C596.002 92.896 590.114 91.8293 584.909 89.696C579.704 87.5627 575.522 84.4053 572.365 80.224C569.293 76.0427 567.672 71.008 567.501 65.12H590.797C591.138 68.448 592.29 71.008 594.253 72.8C596.216 74.5067 598.776 75.36 601.933 75.36C605.176 75.36 607.736 74.6347 609.613 73.184C611.49 71.648 612.429 69.5573 612.429 66.912C612.429 64.6933 611.661 62.8587 610.125 61.408C608.674 59.9573 606.84 58.7627 604.621 57.824C602.488 56.8853 599.416 55.8187 595.405 54.624C589.602 52.832 584.866 51.04 581.197 49.248C577.528 47.456 574.37 44.8107 571.725 41.312C569.08 37.8133 567.757 33.248 567.757 27.616C567.757 19.2533 570.786 12.7253 576.845 8.032C582.904 3.25333 590.797 0.863998 600.525 0.863998C610.424 0.863998 618.402 3.25333 624.461 8.032C630.52 12.7253 633.762 19.296 634.189 27.744H610.509C610.338 24.8427 609.272 22.5813 607.309 20.96C605.346 19.2533 602.829 18.4 599.757 18.4C597.112 18.4 594.978 19.1253 593.357 20.576C591.736 21.9413 590.925 23.9467 590.925 26.592C590.925 29.4933 592.29 31.7547 595.021 33.376C597.752 34.9973 602.018 36.7467 607.821 38.624C613.624 40.5867 618.317 42.464 621.901 44.256C625.57 46.048 628.728 48.6507 631.373 52.064C634.018 55.4773 635.341 59.872 635.341 65.248C635.341 70.368 634.018 75.0187 631.373 79.2C628.813 83.3813 625.058 86.7093 620.109 89.184C615.16 91.6587 609.314 92.896 602.573 92.896ZM713.451 2.144V19.68H689.643V92H667.755V19.68H643.947V2.144H713.451ZM780.372 76.128H746.836L741.46 92H718.548L751.06 2.144H776.404L808.916 92H785.748L780.372 76.128ZM774.74 59.232L763.604 26.336L752.596 59.232H774.74ZM851.323 92.896C844.752 92.896 838.864 91.8293 833.659 89.696C828.454 87.5627 824.272 84.4053 821.115 80.224C818.043 76.0427 816.422 71.008 816.251 65.12H839.547C839.888 68.448 841.04 71.008 843.003 72.8C844.966 74.5067 847.526 75.36 850.683 75.36C853.926 75.36 856.486 74.6347 858.363 73.184C860.24 71.648 861.179 69.5573 861.179 66.912C861.179 64.6933 860.411 62.8587 858.875 61.408C857.424 59.9573 855.59 58.7627 853.371 57.824C851.238 56.8853 848.166 55.8187 844.155 54.624C838.352 52.832 833.616 51.04 829.947 49.248C826.278 47.456 823.12 44.8107 820.475 41.312C817.83 37.8133 816.507 33.248 816.507 27.616C816.507 19.2533 819.536 12.7253 825.595 8.032C831.654 3.25333 839.547 0.863998 849.275 0.863998C859.174 0.863998 867.152 3.25333 873.211 8.032C879.27 12.7253 882.512 19.296 882.939 27.744H859.259C859.088 24.8427 858.022 22.5813 856.059 20.96C854.096 19.2533 851.579 18.4 848.507 18.4C845.862 18.4 843.728 19.1253 842.107 20.576C840.486 21.9413 839.675 23.9467 839.675 26.592C839.675 29.4933 841.04 31.7547 843.771 33.376C846.502 34.9973 850.768 36.7467 856.571 38.624C862.374 40.5867 867.067 42.464 870.651 44.256C874.32 46.048 877.478 48.6507 880.123 52.064C882.768 55.4773 884.091 59.872 884.091 65.248C884.091 70.368 882.768 75.0187 880.123 79.2C877.563 83.3813 873.808 86.7093 868.859 89.184C863.91 91.6587 858.064 92.896 851.323 92.896ZM919.449 2.144V92H897.561V2.144H919.449Z" fill="#2AAA8A"/>
</svg>
