<svg width="305" height="233" viewBox="0 0 305 233" fill="none" xmlns="http://www.w3.org/2000/svg">
<path d="M219.317 180.828H170.623L149.613 73.8348H198.309L219.317 180.828Z" fill="url(#paint0_linear_7_4)"/>
<path d="M134.233 180.828H86.08L40.1653 117.488H88.3187L134.233 180.828Z" fill="url(#paint1_linear_7_4)"/>
<path d="M217.225 180.828H170.623L149.613 73.8348H196.217L217.225 180.828Z" fill="url(#paint2_linear_7_4)"/>
<path d="M132.14 180.828H86.08L40.1653 117.488H86.2253L132.14 180.828Z" fill="url(#paint3_linear_7_4)"/>
<path d="M15.936 206.152L10.104 217.432V223H6V217.432L0.168 206.152H4.824L8.088 213.208L11.328 206.152H15.936ZM21.6216 206.152V216.232C21.6216 217.24 21.8696 218.016 22.3656 218.56C22.8616 219.104 23.5896 219.376 24.5496 219.376C25.5096 219.376 26.2456 219.104 26.7576 218.56C27.2696 218.016 27.5256 217.24 27.5256 216.232V206.152H31.6296V216.208C31.6296 217.712 31.3096 218.984 30.6696 220.024C30.0296 221.064 29.1656 221.848 28.0776 222.376C27.0056 222.904 25.8056 223.168 24.4776 223.168C23.1496 223.168 21.9576 222.912 20.9016 222.4C19.8616 221.872 19.0376 221.088 18.4296 220.048C17.8216 218.992 17.5176 217.712 17.5176 216.208V206.152H21.6216ZM44.2794 223L38.6154 215.56V223H34.5114V206.152H38.6154V213.544L44.2314 206.152H49.0554L42.5274 214.408L49.2954 223H44.2794ZM181.467 223.168C180.235 223.168 179.131 222.968 178.155 222.568C177.179 222.168 176.395 221.576 175.803 220.792C175.227 220.008 174.923 219.064 174.891 217.96H179.259C179.323 218.584 179.539 219.064 179.907 219.4C180.275 219.72 180.755 219.88 181.347 219.88C181.955 219.88 182.435 219.744 182.787 219.472C183.139 219.184 183.315 218.792 183.315 218.296C183.315 217.88 183.171 217.536 182.883 217.264C182.611 216.992 182.267 216.768 181.851 216.592C181.451 216.416 180.875 216.216 180.123 215.992C179.035 215.656 178.147 215.32 177.459 214.984C176.771 214.648 176.179 214.152 175.683 213.496C175.187 212.84 174.939 211.984 174.939 210.928C174.939 209.36 175.507 208.136 176.643 207.256C177.779 206.36 179.259 205.912 181.083 205.912C182.939 205.912 184.435 206.36 185.571 207.256C186.707 208.136 187.315 209.368 187.395 210.952H182.955C182.923 210.408 182.723 209.984 182.355 209.68C181.987 209.36 181.515 209.2 180.939 209.2C180.443 209.2 180.043 209.336 179.739 209.608C179.435 209.864 179.283 210.24 179.283 210.736C179.283 211.28 179.539 211.704 180.051 212.008C180.563 212.312 181.363 212.64 182.451 212.992C183.539 213.36 184.419 213.712 185.091 214.048C185.779 214.384 186.371 214.872 186.867 215.512C187.363 216.152 187.611 216.976 187.611 217.984C187.611 218.944 187.363 219.816 186.867 220.6C186.387 221.384 185.683 222.008 184.755 222.472C183.827 222.936 182.731 223.168 181.467 223.168ZM200.624 220.024H194.336L193.328 223H189.032L195.128 206.152H199.88L205.976 223H201.632L200.624 220.024ZM199.568 216.856L197.48 210.688L195.416 216.856H199.568ZM222.424 206.152V223H218.32V216.064H211.936V223H207.832V206.152H211.936V212.752H218.32V206.152H222.424ZM235.874 220.024H229.586L228.578 223H224.282L230.378 206.152H235.13L241.226 223H236.882L235.874 220.024ZM234.818 216.856L232.73 210.688L230.666 216.856H234.818ZM262.162 206.152V223H258.058V212.896L254.29 223H250.978L247.186 212.872V223H243.082V206.152H247.93L252.658 217.816L257.338 206.152H262.162Z" fill="#666665" />
<path d="M55.3498 206.152V223H51.2458V206.152H55.3498ZM73.3959 223H69.2919L62.4279 212.608V223H58.3239V206.152H62.4279L69.2919 216.592V206.152H73.3959V223ZM92.1868 206.152L86.2108 223H81.0748L75.0988 206.152H79.4668L83.6428 218.872L87.8428 206.152H92.1868ZM98.0061 209.44V212.848H103.502V216.016H98.0061V219.712H104.222V223H93.9021V206.152H104.222V209.44H98.0061ZM112.982 223.168C111.75 223.168 110.646 222.968 109.67 222.568C108.694 222.168 107.91 221.576 107.318 220.792C106.742 220.008 106.438 219.064 106.406 217.96H110.774C110.838 218.584 111.054 219.064 111.422 219.4C111.79 219.72 112.27 219.88 112.862 219.88C113.47 219.88 113.95 219.744 114.302 219.472C114.654 219.184 114.83 218.792 114.83 218.296C114.83 217.88 114.686 217.536 114.398 217.264C114.126 216.992 113.782 216.768 113.366 216.592C112.966 216.416 112.39 216.216 111.638 215.992C110.55 215.656 109.662 215.32 108.974 214.984C108.286 214.648 107.694 214.152 107.198 213.496C106.702 212.84 106.454 211.984 106.454 210.928C106.454 209.36 107.022 208.136 108.158 207.256C109.294 206.36 110.774 205.912 112.598 205.912C114.454 205.912 115.95 206.36 117.086 207.256C118.222 208.136 118.83 209.368 118.91 210.952H114.47C114.438 210.408 114.238 209.984 113.87 209.68C113.502 209.36 113.03 209.2 112.454 209.2C111.958 209.2 111.558 209.336 111.254 209.608C110.95 209.864 110.798 210.24 110.798 210.736C110.798 211.28 111.054 211.704 111.566 212.008C112.078 212.312 112.878 212.64 113.966 212.992C115.054 213.36 115.934 213.712 116.606 214.048C117.294 214.384 117.886 214.872 118.382 215.512C118.878 216.152 119.126 216.976 119.126 217.984C119.126 218.944 118.878 219.816 118.382 220.6C117.902 221.384 117.198 222.008 116.27 222.472C115.342 222.936 114.246 223.168 112.982 223.168ZM133.772 206.152V209.44H129.308V223H125.204V209.44H120.74V206.152H133.772ZM146.32 220.024H140.032L139.024 223H134.728L140.824 206.152H145.576L151.672 223H147.328L146.32 220.024ZM145.264 216.856L143.176 210.688L141.112 216.856H145.264ZM159.623 223.168C158.391 223.168 157.287 222.968 156.311 222.568C155.335 222.168 154.551 221.576 153.959 220.792C153.383 220.008 153.079 219.064 153.047 217.96H157.415C157.479 218.584 157.695 219.064 158.063 219.4C158.431 219.72 158.911 219.88 159.503 219.88C160.111 219.88 160.591 219.744 160.943 219.472C161.295 219.184 161.471 218.792 161.471 218.296C161.471 217.88 161.327 217.536 161.039 217.264C160.767 216.992 160.423 216.768 160.007 216.592C159.607 216.416 159.031 216.216 158.279 215.992C157.191 215.656 156.303 215.32 155.615 214.984C154.927 214.648 154.335 214.152 153.839 213.496C153.343 212.84 153.095 211.984 153.095 210.928C153.095 209.36 153.663 208.136 154.799 207.256C155.935 206.36 157.415 205.912 159.239 205.912C161.095 205.912 162.591 206.36 163.727 207.256C164.863 208.136 165.471 209.368 165.551 210.952H161.111C161.079 210.408 160.879 209.984 160.511 209.68C160.143 209.36 159.671 209.2 159.095 209.2C158.599 209.2 158.199 209.336 157.895 209.608C157.591 209.864 157.439 210.24 157.439 210.736C157.439 211.28 157.695 211.704 158.207 212.008C158.719 212.312 159.519 212.64 160.607 212.992C161.695 213.36 162.575 213.712 163.247 214.048C163.935 214.384 164.527 214.872 165.023 215.512C165.519 216.152 165.767 216.976 165.767 217.984C165.767 218.944 165.519 219.816 165.023 220.6C164.543 221.384 163.839 222.008 162.911 222.472C161.983 222.936 160.887 223.168 159.623 223.168ZM172.397 206.152V223H168.293V206.152H172.397Z" fill="#F3921A"/>
<path d="M134.776 180.828H88.9026L152.437 73.8348H198.309L134.776 180.828Z" fill="url(#paint4_linear_7_4)"/>
<path d="M4.87599 180.828H50.7493L88.3613 117.488H42.4893L4.87599 180.828Z" fill="url(#paint5_linear_7_4)"/>
<path d="M304.603 71.7241L302.849 0.545462H300.027L239.623 33.2854L255.648 42.7655L173.445 180.828H219.317L289.572 62.8335L301.779 71.7241H304.603Z" fill="url(#paint6_linear_7_4)"/>
<path d="M131.951 180.828H86.08L149.615 73.8348H195.485L131.951 180.828Z" fill="url(#paint7_linear_7_4)"/>
<path d="M2.05331 180.828H47.924L85.5373 117.488H39.6653L2.05331 180.828Z" fill="url(#paint8_linear_7_4)"/>
<path d="M301.779 71.7241L300.027 0.545462L236.799 33.2854L252.824 42.7655L170.623 180.828H216.495L286.749 62.8335L301.779 71.7241Z" fill="url(#paint9_linear_7_4)"/>
<defs>
<linearGradient id="paint0_linear_7_4" x1="187.946" y1="175.768" x2="182.132" y2="94.838" gradientUnits="userSpaceOnUse">
<stop stop-color="#6B6225"/>
<stop offset="1" stop-color="#524C1B"/>
</linearGradient>
<linearGradient id="paint1_linear_7_4" x1="89.6184" y1="182.832" x2="83.8045" y2="101.902" gradientUnits="userSpaceOnUse">
<stop stop-color="#6B6225"/>
<stop offset="1" stop-color="#524C1B"/>
</linearGradient>
<linearGradient id="paint2_linear_7_4" x1="176.172" y1="79.5263" x2="192.255" y2="185.612" gradientUnits="userSpaceOnUse">
<stop stop-color="#524C1B"/>
<stop offset="0.476547" stop-color="#8E8134"/>
<stop offset="1" stop-color="#6B6225"/>
</linearGradient>
<linearGradient id="paint3_linear_7_4" x1="64.7415" y1="136.244" x2="111.592" y2="164.503" gradientUnits="userSpaceOnUse">
<stop stop-color="#524C1B"/>
<stop offset="0.476547" stop-color="#8E8134"/>
<stop offset="1" stop-color="#6B6225"/>
</linearGradient>
<linearGradient id="paint4_linear_7_4" x1="116.863" y1="171.715" x2="175.703" y2="74.0655" gradientUnits="userSpaceOnUse">
<stop stop-color="#F3921A"/>
<stop offset="1" stop-color="#D66323"/>
</linearGradient>
<linearGradient id="paint5_linear_7_4" x1="66.7074" y1="111.213" x2="29.1499" y2="182.154" gradientUnits="userSpaceOnUse">
<stop stop-color="#F3921A"/>
<stop offset="1" stop-color="#F7B50D"/>
</linearGradient>
<linearGradient id="paint6_linear_7_4" x1="283.527" y1="31.6721" x2="198.841" y2="186.238" gradientUnits="userSpaceOnUse">
<stop stop-color="#7A171E"/>
<stop offset="1" stop-color="#D02036"/>
</linearGradient>
<linearGradient id="paint7_linear_7_4" x1="114.039" y1="171.715" x2="172.879" y2="74.0654" gradientUnits="userSpaceOnUse">
<stop stop-color="#D66323"/>
<stop offset="1" stop-color="#F9B312"/>
</linearGradient>
<linearGradient id="paint8_linear_7_4" x1="63.8835" y1="111.213" x2="26.3261" y2="182.154" gradientUnits="userSpaceOnUse">
<stop stop-color="#FFD400"/>
<stop offset="1" stop-color="#F3921A"/>
</linearGradient>
<linearGradient id="paint9_linear_7_4" x1="280.703" y1="31.6721" x2="196.017" y2="186.238" gradientUnits="userSpaceOnUse">
<stop stop-color="#E11A35"/>
<stop offset="1" stop-color="#7A171E"/>
</linearGradient>
</defs>
</svg>
